<?xml version="1.0" standalone="no"?>
<!DOCTYPE svg PUBLIC "-//W3C//DTD SVG 20010904//EN"
 "http://www.w3.org/TR/2001/REC-SVG-20010904/DTD/svg10.dtd">
<svg version="1.0" xmlns="http://www.w3.org/2000/svg"
 width="1816.000000pt" height="1816.000000pt" viewBox="0 0 1816.000000 1816.000000"
 preserveAspectRatio="xMidYMid meet">
<metadata>
Created by potrace 1.11, written by Peter Selinger 2001-2013
</metadata>
<g transform="translate(0.000000,1816.000000) scale(0.100000,-0.100000)"
fill="#000000" stroke="none">
<path d="M8419 14489 c-10 -6 -11 -9 -1 -10 6 -1 17 -3 22 -4 6 -1 15 -3 21
-4 5 0 8 -5 4 -10 -3 -6 -18 -6 -38 0 -34 10 -121 -2 -157 -21 -11 -6 -47 -9
-80 -8 -39 1 -64 -2 -72 -11 -11 -11 -9 -12 12 -6 18 4 21 4 11 -4 -8 -5 -53
-15 -100 -22 -47 -6 -96 -15 -108 -20 -17 -6 -21 -5 -17 6 3 8 13 16 22 18 12
3 10 5 -6 6 -12 0 -40 -11 -61 -25 -25 -16 -57 -27 -89 -29 -28 -2 -61 -9 -74
-16 -12 -7 -36 -14 -53 -15 -16 -2 -45 -6 -63 -9 -31 -6 -33 -5 -23 14 6 11
11 22 11 24 0 3 -43 -17 -95 -43 -102 -51 -135 -63 -135 -49 0 5 7 9 15 9 8 0
15 6 15 14 0 8 14 17 30 21 17 4 30 10 30 15 0 8 -65 -8 -155 -40 -27 -10 -75
-23 -106 -30 -76 -17 -240 -96 -217 -105 9 -4 26 -1 38 5 14 8 20 8 16 1 -7
-10 -69 -31 -95 -31 -10 0 -11 3 -2 14 9 11 7 15 -9 19 -11 3 -22 1 -25 -3 -9
-15 -97 -60 -117 -60 -11 0 -26 -7 -34 -15 -9 -8 -11 -15 -5 -15 6 0 8 -7 4
-16 -4 -10 -13 -14 -26 -10 -14 3 -28 -3 -43 -19 -28 -30 -48 -33 -39 -5 9 29
-10 25 -23 -5 -6 -14 -17 -25 -24 -25 -8 0 -29 -8 -48 -18 -19 -11 -40 -17
-46 -15 -15 5 -130 -53 -155 -78 -17 -17 -91 -59 -104 -59 -3 0 -3 5 0 10 10
17 -5 11 -28 -10 -12 -11 -46 -34 -75 -51 -37 -21 -52 -35 -48 -45 4 -11 -2
-14 -30 -12 -28 2 -40 -3 -55 -22 -10 -14 -19 -22 -19 -18 -1 26 -174 -106
-263 -199 -32 -34 -73 -67 -90 -72 l-32 -11 35 30 c19 16 29 30 23 30 -15 0
-98 -79 -104 -98 -2 -7 -19 -14 -37 -17 -32 -4 -49 -16 -149 -111 -22 -21 -70
-66 -105 -98 -34 -33 -56 -56 -48 -52 8 4 4 -2 -9 -13 -25 -23 -47 -28 -35 -9
8 12 1 9 -55 -29 -20 -14 -37 -19 -41 -14 -3 6 -25 -8 -48 -30 -40 -39 -60
-68 -24 -37 29 26 129 73 112 54 -7 -10 -35 -29 -62 -42 -26 -13 -48 -29 -48
-34 0 -13 7 -13 32 1 41 22 27 0 -20 -31 -40 -26 -48 -36 -44 -55 3 -20 -2
-27 -34 -41 -22 -10 -43 -20 -48 -22 -5 -3 -6 0 -2 7 4 6 3 11 -2 11 -13 0
-24 -29 -16 -41 3 -5 -2 -12 -10 -15 -9 -3 -16 -12 -16 -19 0 -7 -12 -21 -27
-31 l-28 -17 19 27 c9 15 14 31 10 34 -4 4 -9 1 -11 -6 -4 -10 -105 -152 -128
-180 -2 -2 -10 -5 -19 -6 -15 -2 -49 -46 -78 -101 -8 -17 -32 -57 -52 -89 -20
-33 -36 -65 -36 -72 0 -7 -9 -16 -20 -19 -11 -3 -20 -11 -20 -16 0 -5 -7 -9
-15 -9 -8 0 -15 -6 -16 -12 -2 -35 -11 -54 -55 -119 -27 -39 -50 -65 -52 -59
-2 6 3 21 11 34 22 33 48 98 36 91 -18 -12 -61 -108 -56 -127 6 -23 -11 -78
-24 -78 -6 0 -17 -15 -25 -32 -7 -18 -26 -48 -41 -67 -21 -26 -23 -33 -10 -28
27 10 20 -6 -21 -45 -21 -19 -38 -45 -39 -57 -2 -18 1 -20 12 -11 7 6 -2 -19
-22 -55 -19 -36 -36 -65 -39 -65 -2 0 2 13 11 29 8 17 11 32 6 35 -4 3 -20
-20 -35 -52 -14 -31 -35 -72 -46 -91 -13 -23 -16 -39 -10 -46 6 -8 3 -25 -10
-50 -11 -22 -20 -45 -20 -52 0 -7 -9 -17 -20 -23 -12 -6 -19 -19 -17 -33 1
-13 -3 -21 -10 -20 -12 3 -18 -10 -14 -30 1 -5 -11 -30 -27 -55 -30 -48 -73
-155 -112 -277 -27 -82 -39 -102 -51 -83 -7 10 -9 10 -10 1 -1 -7 -2 -16 -4
-20 -1 -5 -5 -26 -9 -48 -5 -22 -15 -51 -23 -64 -10 -16 -12 -26 -5 -30 14 -9
11 -53 -3 -47 -6 2 -16 -14 -22 -35 -6 -21 -6 -39 -2 -39 14 0 11 -17 -6 -34
-8 -8 -15 -28 -15 -44 0 -17 -5 -32 -11 -34 -13 -4 -69 -278 -60 -293 4 -5 6
-17 5 -25 -1 -8 -2 -22 -3 -30 -1 -12 -3 -13 -10 -1 -11 17 -29 -84 -26 -145
2 -24 -1 -47 -6 -50 -12 -7 -12 -74 0 -74 6 0 13 5 17 12 5 7 3 8 -7 3 -11 -7
-12 -6 -3 6 7 8 15 33 19 56 4 24 11 45 15 48 5 3 7 -2 6 -12 -9 -48 -20 -121
-20 -144 -1 -16 -7 -26 -18 -26 -16 -2 -18 12 -5 34 5 9 3 11 -6 7 -8 -3 -18
-21 -21 -40 -7 -34 -7 -34 -60 -34 l-54 0 -151 -151 -151 -152 0 -571 0 -571
151 -151 151 -151 125 -1 c69 -1 128 -3 131 -6 2 -3 -1 -12 -8 -21 -9 -11 -10
-25 -2 -55 15 -61 -2 -57 -31 8 l-27 57 0 -45 c0 -25 7 -55 16 -68 8 -12 12
-22 8 -22 -4 0 2 -9 14 -20 24 -23 26 -29 13 -49 -6 -9 -2 -20 10 -32 20 -20
41 -85 44 -139 3 -43 21 -90 35 -90 5 0 10 -4 10 -10 0 -5 9 -19 20 -30 11
-11 17 -26 14 -35 -4 -8 -1 -15 5 -15 6 0 11 6 11 13 0 8 4 7 10 -3 14 -22 13
-25 -15 -25 -20 0 -26 6 -31 32 -3 18 -10 30 -15 27 -5 -3 -9 1 -9 9 0 20 -37
64 -46 55 -3 -4 3 -30 15 -57 11 -27 21 -60 21 -73 0 -14 13 -35 31 -51 18
-15 27 -31 23 -38 -4 -8 -11 -4 -19 11 -8 15 -15 19 -19 11 -4 -6 0 -21 8 -33
9 -12 16 -35 16 -50 0 -15 4 -29 9 -32 4 -3 23 -45 41 -93 18 -48 35 -82 38
-75 8 24 19 11 52 -60 18 -40 40 -81 48 -90 8 -10 10 -18 5 -18 -16 0 -28 19
-56 85 -15 35 -32 61 -42 63 -10 2 -15 0 -13 -5 2 -4 22 -47 45 -94 22 -47 54
-101 71 -121 18 -19 29 -38 25 -41 -7 -7 13 -90 30 -125 6 -12 17 -20 24 -18
7 3 13 0 13 -6 0 -19 41 -57 56 -51 8 3 18 -6 25 -21 7 -14 17 -26 22 -26 5 0
1 12 -9 28 -10 15 -27 45 -37 66 -10 21 -27 48 -38 59 -10 12 -19 31 -19 43 0
12 -6 25 -12 27 -8 3 -8 6 -2 6 19 2 41 -31 113 -173 40 -76 85 -158 101 -182
17 -23 30 -51 30 -61 0 -10 -13 3 -33 33 -19 28 -43 60 -55 72 l-22 22 0 -36
c0 -30 2 -34 14 -25 17 14 31 -3 91 -108 22 -39 44 -71 48 -71 5 0 6 4 2 9
-11 19 14 20 36 1 20 -16 21 -19 7 -20 -17 0 -26 -20 -10 -20 5 0 34 -35 65
-77 31 -43 68 -90 82 -106 14 -15 23 -31 20 -37 -5 -8 45 -74 70 -92 17 -13
25 -9 19 10 -3 9 14 -5 39 -33 50 -55 54 -75 7 -30 -23 22 -33 26 -42 17 -9
-9 -9 -12 0 -12 7 0 30 -18 52 -40 38 -39 59 -52 44 -28 -4 7 -3 8 5 4 6 -4 9
-11 6 -16 -4 -7 24 -38 31 -33 10 7 32 -11 28 -22 -3 -7 3 -16 14 -19 10 -4
41 -34 67 -69 34 -43 41 -57 24 -46 -13 9 -30 14 -37 11 -16 -5 44 -72 64 -72
6 0 24 -16 38 -35 25 -32 25 -46 0 -27 -5 4 9 -11 33 -33 24 -22 43 -45 43
-52 0 -6 14 -18 31 -27 28 -14 30 -14 25 0 -6 16 75 -64 164 -162 25 -27 74
-74 109 -104 36 -30 72 -62 80 -71 19 -20 61 -42 61 -33 0 4 -8 13 -17 20 -10
7 -13 14 -7 14 6 0 28 -16 50 -35 21 -19 30 -32 20 -28 -17 6 -17 3 4 -25 16
-21 38 -36 64 -42 65 -17 86 -28 95 -53 8 -20 105 -93 170 -127 14 -7 47 -29
74 -48 41 -30 47 -37 32 -42 -27 -9 -2 -22 28 -15 25 7 57 -15 57 -38 1 -7 19
-24 40 -39 22 -15 40 -34 40 -42 0 -8 14 -19 31 -25 27 -9 30 -9 19 4 -18 22
29 30 65 11 17 -9 24 -16 17 -16 -7 0 -10 -5 -7 -10 4 -6 14 -10 23 -9 23 4
60 -10 99 -35 36 -23 42 -36 16 -36 -13 0 -6 -10 22 -35 22 -19 43 -35 48 -35
4 0 26 -17 50 -39 23 -21 53 -44 67 -50 24 -11 24 -11 6 3 -18 14 -18 16 -3
16 10 0 29 -7 42 -16 24 -16 51 -11 40 7 -10 15 33 10 67 -7 21 -11 33 -13 37
-5 5 7 15 3 30 -13 13 -13 34 -27 48 -31 14 -3 31 -12 39 -19 7 -7 24 -11 38
-9 13 3 32 0 43 -7 16 -10 16 -11 1 -6 -37 11 -16 -5 38 -30 48 -22 73 -29
116 -33 4 -1 13 -7 21 -15 20 -20 112 -35 177 -29 112 11 149 3 130 -27 -7
-11 -13 -12 -35 -2 -36 17 -86 16 -79 -1 3 -8 16 -12 33 -9 16 2 37 -1 48 -8
16 -10 16 -11 1 -6 -10 3 -18 1 -18 -4 0 -11 57 -24 88 -21 24 3 101 -23 145
-50 29 -17 80 -14 74 5 -2 6 -20 12 -40 14 -24 2 -35 7 -31 14 5 8 1 9 -10 5
-10 -4 -15 -3 -11 3 3 6 -4 10 -17 11 -13 0 -17 3 -10 6 7 3 32 0 55 -5 23 -6
58 -14 77 -17 19 -3 51 -10 70 -15 61 -16 203 -37 265 -39 23 -1 9 -17 -20
-23 -11 -3 9 -4 45 -4 63 0 117 -8 128 -19 3 -3 -3 -5 -13 -5 -10 0 -15 -3
-11 -7 3 -4 23 -6 44 -5 20 1 53 -2 72 -7 29 -7 22 -8 -40 -9 -41 0 -100 6
-130 13 -100 23 -120 26 -120 12 0 -9 17 -14 47 -16 25 -1 53 -6 62 -10 9 -5
48 -11 86 -15 39 -4 85 -9 104 -13 24 -4 32 -2 27 6 -5 7 5 11 31 12 l38 2
-35 6 c-31 6 -33 7 -12 13 13 4 33 4 45 1 12 -3 60 -6 107 -8 47 -1 103 -7
125 -13 51 -14 425 -22 425 -9 0 5 15 7 35 4 24 -4 40 -1 50 10 9 9 22 12 33
8 12 -5 13 -9 5 -12 -7 -3 -13 -8 -13 -13 0 -8 48 4 82 21 24 12 85 11 93 -1
4 -6 10 -8 13 -6 4 2 28 7 52 11 25 3 72 12 105 20 33 7 72 11 87 8 15 -3 39
-2 54 1 21 6 24 9 14 21 -10 13 -8 15 13 15 20 0 25 -4 20 -16 -4 -11 0 -15
13 -13 10 1 27 -1 36 -5 30 -14 162 0 210 22 33 14 45 16 42 7 -5 -11 1 -11
33 0 21 7 65 16 98 20 32 3 68 12 80 18 11 6 29 12 40 13 66 7 100 15 115 29
19 17 34 20 25 5 -4 -7 3 -7 19 0 14 5 26 7 26 5 0 -2 12 0 26 6 15 5 43 12
63 15 20 3 63 17 96 30 33 14 87 34 120 46 33 11 69 28 80 37 43 38 128 82
207 107 46 15 87 29 92 32 5 3 6 0 2 -6 -4 -7 -4 -12 -1 -12 13 0 71 34 85 50
13 14 101 60 115 60 11 0 131 59 150 74 29 22 12 20 -29 -5 -20 -12 -36 -17
-36 -12 0 12 70 78 99 93 21 11 23 10 18 -4 -10 -25 1 -19 55 29 46 41 78 59
63 35 -3 -6 0 -10 7 -10 7 0 22 14 33 30 11 16 23 30 27 30 4 0 23 16 44 35
43 41 61 46 38 10 -24 -37 -13 -39 26 -4 18 17 43 32 55 34 12 1 52 23 90 50
38 26 65 40 62 31 -4 -9 -5 -16 -3 -16 2 0 30 25 62 55 77 72 108 100 114 100
20 3 92 49 110 72 16 21 23 24 30 14 6 -11 12 -9 26 9 30 37 65 72 129 130 33
30 51 44 40 31 l-20 -24 25 13 c14 7 26 11 26 9 1 -2 44 36 95 85 64 60 105
108 127 150 l32 61 -45 -50 c-25 -27 -50 -60 -55 -73 -6 -13 -14 -21 -19 -17
-5 3 -13 0 -17 -6 -5 -8 -3 -9 6 -4 9 6 11 4 5 -4 -5 -9 -11 -9 -17 -3 -12 12
-42 -4 -104 -58 -23 -19 -63 -50 -89 -69 -26 -19 -59 -47 -73 -63 -15 -15 -32
-28 -39 -28 -7 0 -16 -6 -20 -13 -4 -7 -39 -31 -78 -54 -38 -23 -98 -64 -133
-92 -34 -28 -67 -51 -73 -51 -14 0 -63 -27 -109 -60 -19 -14 -52 -34 -72 -44
-21 -11 -38 -23 -38 -28 0 -4 -7 -8 -15 -8 -8 0 -23 -8 -34 -19 -15 -15 -71
-35 -71 -25 0 1 16 18 35 38 21 22 40 33 50 30 10 -4 15 0 15 10 0 19 -34 14
-85 -12 l-30 -16 25 -7 c14 -4 18 -7 9 -8 -9 -1 -33 -17 -55 -37 -37 -34 -30
-38 10 -5 12 10 16 11 12 3 -14 -23 -110 -80 -169 -100 -31 -10 -64 -29 -74
-41 -11 -13 -31 -23 -50 -25 -17 -1 -48 -13 -69 -27 -22 -14 -82 -43 -134 -64
-123 -50 -185 -95 -133 -95 9 0 13 3 10 7 -11 11 30 33 48 26 14 -5 10 -11
-21 -29 -22 -13 -50 -24 -64 -23 -17 0 -20 3 -10 7 16 7 24 42 10 42 -5 0 -30
-9 -55 -20 -36 -15 -51 -18 -61 -9 -10 8 -22 8 -47 0 -19 -7 -41 -9 -49 -6 -9
4 -31 -1 -49 -10 l-34 -15 33 5 c18 2 32 0 32 -6 0 -6 5 -7 10 -4 6 3 10 2 10
-4 0 -5 -24 -17 -52 -26 -62 -21 -89 -41 -81 -62 4 -11 1 -14 -13 -11 -11 2
-18 11 -16 19 2 12 -4 15 -23 11 -15 -2 -25 0 -25 7 0 6 2 11 4 11 26 0 112
23 129 35 25 18 10 20 -30 4 -15 -7 -61 -11 -102 -10 -65 2 -73 0 -62 -13 7
-8 21 -18 32 -21 31 -10 22 -21 -28 -34 -43 -10 -62 -14 -128 -26 -11 -2 -38
-11 -60 -21 -52 -22 -185 -54 -185 -43 0 9 40 24 58 20 20 -3 122 28 122 39 0
5 -12 5 -28 0 -23 -6 -31 -4 -41 12 -9 15 -15 17 -26 8 -8 -6 -11 -18 -8 -26
3 -8 1 -14 -3 -15 -50 -4 -73 -8 -93 -14 -16 -6 -22 -5 -18 2 4 6 23 14 42 17
19 4 35 11 35 16 0 4 -22 1 -48 -7 -42 -14 -48 -19 -44 -39 4 -20 -2 -25 -49
-38 -30 -9 -72 -16 -94 -17 -22 -1 -47 -8 -55 -14 -8 -7 -23 -15 -34 -19 -13
-5 -17 -2 -13 9 5 12 -2 14 -36 11 -23 -2 -30 -1 -14 1 54 8 17 19 -60 16 -98
-3 -108 -5 -132 -27 -17 -16 -22 -16 -47 -3 -25 13 -32 13 -68 -7 -26 -13 -68
-23 -116 -27 -41 -3 -82 -7 -90 -10 -8 -2 -14 1 -13 8 4 21 -144 36 -169 16
-15 -11 -78 -9 -104 4 -26 13 -95 5 -116 -14 -16 -14 -20 -14 -35 -1 -20 16
-63 22 -63 7 0 -12 -47 -12 -71 1 -11 6 -19 7 -19 1 0 -5 -18 -11 -39 -13 -22
-2 -37 0 -35 4 3 5 13 8 22 8 11 0 13 3 5 11 -8 8 -19 6 -39 -8 -16 -10 -25
-13 -21 -7 8 14 -17 26 -38 18 -8 -4 -22 -1 -30 6 -11 9 -42 11 -109 7 -76 -5
-97 -3 -107 9 -7 9 -23 13 -39 10 -15 -2 -34 0 -41 5 -9 6 5 9 41 10 44 1 50
3 30 10 -17 5 -7 7 33 3 40 -4 57 -2 57 7 0 8 6 7 18 -3 18 -16 59 -18 80 -5
7 5 22 5 33 2 11 -4 43 -7 70 -7 27 1 49 -3 49 -9 0 -19 31 -8 39 13 7 20 5
24 -18 29 -26 7 -25 7 4 8 17 0 36 -4 43 -11 9 -9 18 -8 39 2 20 10 78 14 205
15 153 1 174 -1 156 -13 -15 -11 -47 -13 -139 -10 -98 4 -119 2 -119 -10 0
-10 10 -12 40 -8 31 4 42 2 47 -10 4 -11 13 -14 32 -9 49 13 83 12 89 -3 4
-12 18 -13 76 -7 39 5 86 8 104 8 20 0 28 3 20 9 -10 6 -8 8 5 8 9 0 17 -4 17
-9 0 -16 145 -4 179 14 23 11 36 13 50 5 27 -14 54 -13 48 3 -2 6 -11 11 -18
9 -8 -2 -11 0 -7 4 11 11 98 14 98 3 0 -5 -5 -9 -12 -9 -9 0 -9 -3 0 -12 10
-10 15 -10 20 -1 8 13 43 22 117 29 28 2 59 6 70 9 11 2 23 4 28 4 18 2 5 21
-15 21 l-23 1 24 19 c13 11 31 20 40 19 10 0 11 -2 4 -6 -7 -2 -13 -8 -13 -13
0 -10 61 6 69 18 11 15 40 21 44 9 2 -8 14 -6 40 8 20 10 39 16 43 12 4 -4 2
-7 -4 -7 -7 0 -12 -4 -12 -10 0 -15 26 -12 40 6 8 8 23 20 34 26 20 11 21 10
3 -10 -18 -20 -18 -20 39 -21 32 0 72 -3 89 -6 22 -5 26 -4 15 4 -8 6 -10 11
-5 11 6 0 16 -5 21 -10 7 -7 23 -3 50 10 36 20 37 21 9 16 -24 -4 -21 -1 15
15 25 11 65 23 90 26 25 3 78 16 118 30 40 14 76 23 79 20 3 -3 -13 -11 -36
-17 -22 -6 -43 -15 -46 -20 -10 -17 19 -11 71 14 54 26 85 39 97 40 4 1 7 5 6
10 -1 12 68 46 93 46 11 0 51 14 90 30 39 17 73 28 76 25 3 -3 10 -1 16 4 6 4
43 25 81 46 85 46 114 65 97 65 -24 0 -12 18 21 31 37 14 64 15 91 4 16 -7 18
-5 13 14 -4 19 3 26 56 52 l62 30 -30 -27 c-16 -14 -25 -24 -20 -21 129 62
166 77 175 72 5 -3 15 4 22 15 7 12 55 41 106 65 51 24 111 58 132 75 22 17
48 33 59 35 12 2 36 15 54 29 19 14 39 26 44 26 6 0 38 20 71 44 33 24 75 52
93 62 19 9 60 40 91 68 31 28 80 64 109 80 l53 29 -21 -29 c-42 -61 -33 -57
41 18 42 43 85 82 95 87 14 8 17 22 17 62 -1 52 0 53 52 92 28 22 52 41 52 43
0 12 -25 -1 -72 -39 -57 -46 -102 -70 -78 -42 7 8 18 15 24 15 6 1 29 23 50
51 22 27 45 48 51 45 13 -5 39 9 41 21 4 29 29 73 41 73 9 0 31 16 49 36 19
19 34 32 34 28 0 -4 10 1 21 12 22 19 22 19 10 -6 -7 -14 9 -2 38 30 40 43 51
51 52 35 0 -14 5 -10 16 15 8 19 20 38 27 43 8 5 8 9 -1 15 -8 5 -9 13 -3 22
6 8 10 25 10 38 0 12 4 22 9 22 13 0 41 29 41 41 0 6 -6 7 -12 3 -8 -5 -7 -1
2 10 8 11 16 14 18 7 5 -16 22 -14 22 3 0 8 8 21 18 28 10 7 24 28 31 46 8 18
42 61 77 95 71 69 87 110 34 82 -16 -9 -30 -20 -30 -26 0 -6 6 -7 13 -2 6 4
-3 -12 -22 -35 -18 -24 -36 -40 -39 -38 -3 3 2 14 11 24 10 10 17 23 17 28 0
5 -4 5 -8 -1 -4 -5 -18 -19 -32 -30 l-25 -20 21 25 c12 14 24 33 27 43 4 10
11 16 17 12 5 -3 19 9 30 27 11 18 20 27 20 19 0 -23 35 30 55 82 12 31 24 47
35 47 10 0 29 18 44 40 15 23 38 51 51 62 14 12 25 26 25 32 1 6 12 25 26 41
15 17 23 24 19 16 -5 -9 -4 -12 3 -7 25 15 94 146 89 168 -3 11 1 34 9 49 7
15 14 39 14 54 0 14 5 24 11 23 15 -4 59 78 59 109 0 12 4 23 9 23 12 0 -5
-84 -18 -88 -6 -2 -11 -10 -11 -18 0 -9 5 -12 10 -9 12 8 50 84 50 101 0 7 9
19 20 27 11 8 30 48 45 95 14 45 30 82 36 82 6 0 8 9 4 19 -6 18 5 46 31 81 6
8 14 29 18 45 l7 30 -21 -25 c-11 -14 -23 -37 -26 -52 -4 -16 -13 -28 -22 -28
-8 0 -21 -8 -28 -17 -12 -16 -12 -13 -3 15 6 17 15 35 20 38 5 3 9 10 9 16 0
6 -9 3 -20 -7 -11 -10 -20 -26 -20 -35 0 -9 -5 -21 -11 -27 -6 -6 -13 -25 -16
-44 l-5 -34 22 25 21 25 -17 -28 c-9 -15 -22 -31 -28 -35 -6 -4 -21 -25 -33
-47 -12 -22 -26 -39 -32 -38 -10 3 -61 -57 -61 -72 0 -4 -23 -33 -50 -66 -28
-32 -57 -77 -64 -101 -8 -24 -14 -37 -15 -29 -1 11 -6 10 -21 -4 -11 -10 -20
-23 -20 -30 0 -6 -10 -22 -22 -35 -14 -15 -18 -25 -10 -28 14 -4 -7 -50 -34
-73 -16 -13 -16 -12 -4 11 12 22 12 24 -2 12 -18 -15 -34 0 -22 21 15 26 -13
-10 -49 -63 -43 -65 -87 -117 -87 -103 0 5 11 24 24 42 19 26 22 37 14 50 -8
13 -6 25 5 47 9 16 16 23 17 17 1 -36 59 15 60 52 0 11 14 37 30 59 16 21 32
52 36 70 3 17 14 42 23 56 29 45 40 64 65 115 13 28 34 60 45 71 11 12 18 24
15 27 -3 3 3 22 14 44 15 28 17 43 10 60 -10 21 -10 21 -38 -7 -19 -20 -26
-35 -23 -53 3 -13 -4 -41 -16 -63 -12 -21 -21 -47 -21 -57 0 -10 -4 -16 -9
-13 -5 3 -7 15 -4 26 3 11 0 20 -6 20 -6 0 -11 -4 -11 -10 0 -5 -13 -24 -28
-42 -15 -18 -37 -53 -47 -78 -23 -53 -55 -99 -55 -78 0 8 4 18 8 24 5 5 14 23
20 39 l13 30 -21 -25 c-11 -14 -34 -52 -51 -85 -32 -62 -79 -119 -79 -97 0 7
7 24 16 37 9 14 12 25 6 25 -13 0 -45 -68 -37 -80 3 -5 1 -19 -5 -31 -8 -14
-8 -25 -2 -31 7 -7 4 -20 -7 -39 -18 -32 -28 -36 -33 -14 -2 10 -29 -21 -67
-75 -63 -89 -91 -120 -78 -87 3 10 2 17 -2 17 -10 0 -21 -25 -21 -49 0 -29
-161 -229 -309 -384 -41 -42 -82 -90 -92 -106 -17 -28 -59 -66 -82 -74 -9 -3
-8 -8 3 -22 13 -15 12 -19 -10 -36 -41 -31 -45 -34 -59 -37 -12 -3 -41 -33
-62 -64 -3 -5 -17 -11 -31 -12 -14 -2 -49 -21 -79 -43 -30 -22 -64 -46 -76
-52 -13 -6 -23 -16 -23 -22 0 -6 5 -7 10 -4 6 3 10 4 10 1 0 -3 -19 -15 -42
-27 -24 -12 -37 -24 -31 -26 8 -3 2 -14 -17 -29 -16 -14 -31 -33 -34 -42 -3
-9 -20 -25 -37 -35 -29 -16 -31 -16 -25 0 6 16 6 16 -12 0 -10 -9 -22 -17 -27
-17 -4 0 -37 -21 -74 -48 -36 -26 -73 -51 -82 -57 -9 -5 -59 -39 -110 -75 -52
-35 -99 -65 -106 -66 -7 -1 -26 -19 -44 -39 -18 -20 -35 -32 -38 -27 -7 10
-234 -109 -267 -139 -11 -11 -28 -17 -36 -14 -8 3 -45 -13 -83 -36 -37 -22
-87 -49 -111 -60 -42 -18 -62 -35 -26 -22 12 4 14 3 7 -5 -8 -9 -38 -17 -78
-21 -5 -1 -5 -7 -1 -13 6 -10 5 -10 -7 -1 -11 9 -19 8 -34 -4 -20 -15 -19 -15
4 -10 30 7 15 -8 -18 -18 -21 -6 -23 -5 -18 14 5 20 4 20 -36 -4 -105 -64
-207 -107 -207 -86 0 14 -42 1 -67 -22 -12 -11 -29 -17 -37 -14 -8 3 -39 -3
-69 -13 -29 -10 -65 -17 -78 -14 -20 5 -21 4 -9 -6 12 -9 11 -10 -8 -5 -18 5
-34 -1 -64 -25 -21 -18 -42 -29 -45 -26 -4 3 2 13 13 21 10 8 -19 -1 -64 -20
-81 -34 -124 -45 -92 -25 12 8 9 10 -12 10 -16 0 -28 5 -28 10 0 6 7 10 15 10
8 0 15 4 15 9 0 14 -72 -10 -96 -32 -13 -11 -24 -14 -28 -9 -3 6 0 13 6 16 7
3 -2 4 -21 1 -38 -4 -59 -19 -42 -29 6 -4 11 -2 11 3 0 6 9 11 20 11 31 0 24
-14 -17 -33 -22 -10 -41 -13 -46 -8 -10 10 -52 -2 -77 -23 -8 -7 -35 -14 -60
-15 -87 -4 -164 -20 -172 -36 -11 -19 -28 -19 -28 0 0 8 -8 16 -17 16 -10 1
-4 5 12 10 22 6 17 7 -20 3 -27 -3 -61 -12 -75 -19 -21 -11 -31 -11 -60 1 -18
8 -39 13 -46 10 -6 -2 -16 0 -20 4 -5 5 -20 7 -33 3 l-23 -6 23 -12 c16 -9 31
-10 48 -4 20 8 22 7 12 -4 -8 -10 -30 -13 -79 -11 -82 3 -82 3 -57 14 16 7 12
9 -20 10 -39 2 -173 0 -330 -4 -44 -1 -93 0 -110 3 l-30 6 32 13 c17 8 33 22
36 33 6 21 -5 24 -31 10 -18 -9 -62 2 -46 11 22 14 93 10 167 -8 4 -1 24 -3
45 -4 l37 -3 -35 -7 -35 -7 43 -2 c27 -1 44 4 48 12 2 7 17 14 32 14 15 0 47
3 72 6 25 4 52 2 60 -3 11 -7 7 -10 -17 -10 -18 0 -33 -4 -33 -10 0 -17 36
-11 64 11 17 13 38 20 59 18 17 -1 50 3 71 10 21 8 63 14 92 14 30 0 54 3 54
8 0 5 28 8 63 5 43 -2 70 1 82 10 24 18 39 18 32 0 -7 -19 3 -28 18 -16 6 5
34 12 61 15 27 4 56 12 64 19 8 7 22 17 30 21 13 8 13 7 1 -8 -8 -10 -11 -21
-7 -24 4 -4 10 -3 14 3 16 24 56 37 147 48 17 1 44 11 60 22 21 13 30 15 33 6
2 -6 11 -12 19 -12 11 0 8 -6 -8 -19 -22 -18 -22 -19 -4 -16 11 2 23 4 28 4 4
1 7 8 7 16 0 17 1 17 80 20 30 2 64 5 75 8 11 3 26 6 33 6 6 1 12 5 12 10 0 8
-60 0 -91 -13 -10 -4 -20 -3 -24 3 -4 7 6 14 24 17 17 4 31 10 31 15 0 5 9 9
21 9 35 0 109 22 104 31 -6 8 15 22 59 39 41 15 30 -5 -11 -23 -21 -9 -27 -14
-13 -11 14 4 41 13 60 22 19 8 39 14 44 13 5 -1 41 9 81 23 40 14 84 27 98 30
14 2 50 22 79 44 53 39 121 64 97 36 -15 -18 -1 -17 31 1 21 12 22 14 6 15
-20 0 74 70 95 70 6 0 24 9 40 21 16 11 38 22 49 24 11 2 36 16 57 32 20 15
44 27 54 25 9 -2 37 10 61 26 81 55 203 127 215 127 7 0 18 8 25 17 7 10 24
19 38 20 16 2 29 13 37 30 6 14 22 32 35 38 21 10 21 10 5 -3 -10 -9 -14 -18
-9 -21 5 -3 22 7 38 22 15 15 24 21 20 15 -13 -22 10 -14 40 15 16 15 35 27
43 27 8 0 15 8 17 18 3 23 33 57 49 57 6 0 30 16 52 35 22 19 43 31 47 28 8
-9 106 87 106 104 0 7 4 13 8 13 4 0 16 14 25 30 10 17 22 30 28 30 5 0 2 -11
-7 -25 -9 -14 -12 -25 -7 -25 12 0 75 65 69 71 -3 3 6 18 20 34 21 25 23 26
13 6 l-11 -24 33 26 c19 14 46 30 62 36 15 6 26 14 25 18 -2 5 26 37 62 73
116 117 173 184 186 220 11 32 31 41 28 13 -3 -23 12 -5 31 37 10 22 24 40 32
40 7 0 13 5 13 10 0 6 -5 10 -11 10 -6 0 -1 14 11 31 49 68 5 32 -133 -111
-82 -85 -147 -145 -150 -138 -2 8 -13 -2 -25 -22 -12 -19 -22 -29 -22 -22 0
28 32 72 87 119 32 26 64 57 72 68 8 11 34 40 58 64 24 24 41 46 38 49 -3 3 4
12 16 20 11 8 18 20 15 28 -3 8 5 20 17 29 12 8 33 32 46 54 14 22 33 42 43
44 10 3 18 14 18 25 0 11 7 25 15 32 12 10 15 10 15 0 0 -7 8 -2 19 11 10 13
17 28 15 34 -2 5 25 42 61 80 35 39 65 75 65 80 0 6 10 21 21 35 11 14 18 19
14 13 -3 -7 -2 -13 4 -13 5 0 13 9 16 21 4 12 14 30 24 40 9 11 17 27 17 37 1
9 3 22 4 27 5 22 -1 46 -9 40 -6 -3 -24 -28 -42 -55 -20 -31 -35 -46 -40 -39
-4 7 -10 3 -14 -12 -5 -14 -3 -25 4 -27 7 -2 6 -13 -4 -33 -19 -36 -24 -37
-17 -4 6 32 -1 32 -23 -1 -9 -15 -12 -23 -6 -20 14 9 14 -4 -1 -37 -17 -35
-31 -35 -17 -1 8 24 8 25 -6 14 -8 -7 -15 -19 -15 -27 0 -7 -15 -27 -34 -44
-20 -17 -36 -41 -38 -57 -2 -17 -10 -28 -25 -32 -12 -3 -31 -17 -43 -32 -12
-16 -28 -28 -35 -28 -15 0 -23 -7 -80 -76 -69 -84 -219 -248 -240 -264 -11 -8
-57 -50 -102 -95 -94 -92 -131 -124 -164 -144 l-24 -14 20 24 c11 13 30 32 43
42 22 18 32 44 12 32 -19 -12 -10 2 22 31 18 16 26 21 19 12 -7 -10 -10 -18
-6 -18 12 0 86 84 101 115 8 17 26 44 40 60 15 17 23 24 20 18 -4 -7 -2 -13 4
-13 6 0 15 11 20 24 4 13 19 32 32 42 13 11 38 39 57 64 19 25 52 64 73 86 22
23 38 48 36 56 -5 22 66 100 79 87 11 -11 19 2 28 52 3 12 18 37 35 54 16 17
30 36 30 41 0 6 11 21 25 34 14 13 25 27 25 32 0 10 80 138 86 138 2 0 1 -15
-3 -32 l-6 -33 37 34 c25 25 32 37 24 42 -8 5 -17 0 -25 -14 -7 -12 -12 -16
-13 -9 0 19 29 73 55 102 13 14 28 45 35 70 15 63 31 100 41 100 5 0 9 11 9
25 0 17 4 23 14 19 10 -4 16 5 21 26 4 17 15 39 24 48 10 9 29 45 44 80 15 35
38 78 52 97 30 38 48 114 24 99 -10 -6 -9 0 4 19 9 14 26 51 38 81 11 31 24
58 29 61 10 6 8 -15 -5 -35 -8 -13 -7 -13 8 -1 9 7 17 18 17 23 0 5 9 27 19
48 11 22 15 42 11 45 -5 3 -11 -1 -14 -7 -3 -7 -3 -2 1 12 6 25 7 42 4 69 -1
11 -4 11 -17 1 -12 -11 -15 -11 -12 0 2 8 9 21 15 29 7 9 19 25 27 36 13 18
14 18 10 -10 l-5 -30 16 29 c14 24 15 30 3 37 -7 5 -8 9 -3 9 6 0 12 12 13 27
1 14 10 32 21 39 19 14 37 69 18 57 -7 -4 -7 6 -2 28 5 19 8 50 8 69 0 19 2
29 4 23 3 -7 9 -13 15 -13 6 0 38 -28 71 -62 l61 -63 522 -1 523 -2 148 152
149 151 -1 573 0 572 -150 150 -150 150 -137 0 c-154 0 -146 -5 -146 86 0 29
-12 96 -26 150 -13 55 -27 125 -29 156 -5 50 -31 126 -91 261 -10 24 -12 36
-5 31 6 -4 31 -49 55 -100 24 -52 46 -94 49 -94 18 0 -31 164 -129 435 -4 11
6 -5 24 -35 39 -69 53 -84 47 -50 -9 46 -12 54 -24 68 -7 7 -13 20 -13 28 0 8
-5 13 -11 12 -6 -2 -20 23 -31 56 -22 67 -46 108 -59 100 -5 -3 -9 1 -9 10 0
8 5 16 11 18 18 6 1 46 -22 53 -16 5 -19 12 -14 35 5 22 1 32 -21 49 -16 13
-24 26 -20 36 3 9 -3 23 -14 32 -11 10 -20 29 -20 43 1 27 3 25 37 -27 10 -14
10 -11 1 16 -6 18 -19 36 -29 38 -11 3 -28 26 -40 52 -11 25 -34 63 -50 84
-17 21 -29 41 -26 44 10 10 27 -8 52 -55 13 -26 24 -39 25 -29 0 20 11 22 28
5 16 -16 15 3 -2 27 -7 11 -14 23 -15 28 0 4 -1 8 -2 10 0 1 -2 12 -3 24 -2
13 -10 31 -18 40 -22 26 -43 67 -29 59 15 -9 14 -2 -4 41 -8 20 -18 34 -21 30
-3 -3 0 -16 6 -29 10 -18 10 -21 0 -11 -19 18 -23 90 -5 97 11 4 8 12 -13 36
-22 23 -27 38 -24 60 3 21 -1 32 -12 36 -9 3 -16 16 -16 28 0 11 -20 56 -45
100 -50 88 -54 97 -25 71 11 -10 20 -15 20 -11 0 11 -52 86 -60 86 -5 0 -13
12 -18 28 -6 15 -32 59 -60 97 -27 39 -78 112 -113 162 -35 51 -66 88 -69 83
-10 -16 -50 28 -50 56 0 18 -25 50 -87 115 -49 50 -90 92 -91 94 -2 2 7 1 20
-2 12 -4 53 -38 91 -76 68 -71 87 -80 42 -21 -14 18 -25 37 -25 43 0 6 -16 21
-36 35 -19 13 -31 27 -26 30 5 3 18 -4 28 -15 20 -22 74 -54 74 -44 0 17 -144
144 -188 165 -28 14 -51 30 -52 37 0 7 7 10 16 6 14 -5 14 -3 5 13 -30 53 -81
86 -81 52 0 -16 -38 20 -45 43 -4 10 -28 30 -55 45 -31 17 -47 31 -43 40 3 8
-2 17 -11 20 -11 4 -14 13 -11 25 4 12 2 19 -8 19 -7 0 -31 13 -53 30 -21 16
-44 30 -50 30 -12 0 -54 42 -54 53 0 4 11 0 25 -9 14 -9 29 -14 32 -10 11 11
-11 26 -41 28 -19 2 -41 16 -65 44 -20 22 -52 46 -71 53 -42 14 -165 85 -131
75 36 -10 18 10 -37 41 -53 30 -156 60 -172 50 -6 -4 -18 -1 -27 7 -14 11 -12
14 23 18 l39 5 -45 27 c-25 15 -51 36 -57 47 -7 12 -34 31 -60 45 -27 13 -57
34 -68 46 -24 27 -145 89 -162 83 -6 -2 -29 5 -50 16 -21 11 -32 20 -25 21 7
0 22 -5 33 -10 10 -6 19 -8 19 -6 0 9 -78 46 -96 46 -20 0 -71 28 -104 57 -14
12 -57 34 -94 47 -73 27 -92 39 -83 53 9 14 98 7 142 -11 l40 -17 -23 20 c-12
11 -44 27 -70 37 -49 18 -85 42 -44 29 12 -3 22 -3 22 2 0 4 -16 13 -35 19
-20 6 -35 7 -35 2 0 -5 -4 -6 -10 -3 -5 3 -10 2 -10 -4 0 -6 23 -20 50 -32 28
-12 49 -24 46 -26 -10 -10 -162 53 -193 80 -20 18 -39 27 -49 23 -18 -7 -165
28 -287 68 -43 14 -86 26 -96 26 -10 0 -24 6 -30 14 -6 7 -37 17 -69 20 -31 4
-70 13 -87 21 -29 13 -29 13 20 8 28 -3 56 -10 63 -16 8 -6 12 -6 12 1 0 6
-19 16 -42 22 -129 34 -263 72 -268 77 -3 3 22 2 55 -2 49 -5 58 -4 48 6 -7 7
-25 14 -40 15 -16 1 -48 10 -73 19 -49 18 -69 23 -115 30 -16 3 -41 7 -55 10
-14 3 -81 12 -150 21 -119 15 -159 24 -112 24 12 0 22 5 22 11 0 5 -5 7 -11 4
-5 -4 -33 -7 -62 -7 -35 1 -47 -2 -37 -8 8 -6 26 -10 40 -11 14 0 19 -3 12 -6
-8 -3 -40 2 -73 11 -32 10 -64 14 -70 11 -5 -4 -17 -1 -26 7 -9 7 -28 13 -42
14 -56 3 -115 14 -121 24 -4 6 -40 13 -81 15 -41 3 -85 7 -98 10 -54 10 -193
20 -356 24 -30 1 -36 4 -25 11 11 7 0 10 -37 10 -39 0 -53 -4 -53 -14 0 -11
-7 -13 -27 -7 -29 8 -95 6 -119 -3 -8 -3 -14 -1 -14 4 0 6 -9 10 -20 10 -11 0
-20 -3 -20 -7 0 -5 -15 -8 -32 -9 -18 0 -45 -3 -60 -6 -15 -4 -30 -2 -33 3 -4
5 -15 9 -26 9 -11 0 -18 -4 -15 -9 8 -13 -123 -2 -159 14 -20 8 -38 9 -46 4z
m2801 -501 c0 -6 -6 -5 -15 2 -8 7 -15 14 -15 16 0 2 7 1 15 -2 8 -4 15 -11
15 -16z m69 -29 c-7 -4 -22 -2 -35 3 -17 8 -20 13 -11 23 9 10 17 9 35 -3 16
-11 20 -17 11 -23z m57 -24 c16 -14 24 -25 18 -25 -6 0 -21 11 -34 25 -30 32
-21 32 16 0z m852 -563 c15 -10 53 -27 85 -37 42 -14 57 -24 57 -37 0 -10 8
-21 18 -24 21 -7 20 -6 133 -83 87 -59 175 -138 165 -148 -12 -12 -131 78
-231 174 -7 6 -41 25 -76 41 -55 25 -189 116 -189 128 0 8 12 4 38 -14z
m-2933 -99 c12 -7 26 -8 36 -2 23 12 76 7 76 -8 0 -7 -3 -11 -6 -11 -3 1 -29
-2 -58 -6 -34 -5 -59 -4 -73 4 -20 11 -139 6 -128 -5 9 -9 82 -17 183 -20 61
-2 110 -4 110 -5 0 -8 128 -9 143 -1 13 7 22 7 31 -2 6 -6 30 -12 54 -13 23
-2 83 -5 133 -7 50 -3 122 -14 160 -26 81 -23 213 -51 246 -51 13 0 57 -11 98
-24 41 -13 93 -25 115 -27 22 -1 51 -8 65 -15 14 -6 81 -31 150 -54 153 -51
289 -115 352 -163 26 -20 50 -32 53 -27 3 5 27 1 56 -11 28 -10 56 -19 62 -17
21 3 94 -22 107 -37 6 -8 48 -32 92 -55 119 -60 262 -177 322 -261 10 -15 26
-22 47 -22 24 0 36 -7 47 -26 25 -43 78 -82 116 -85 20 -2 50 -15 70 -32 47
-38 133 -142 172 -207 17 -29 36 -51 42 -50 6 2 28 -15 49 -36 21 -22 72 -62
113 -89 90 -59 230 -195 230 -223 0 -11 12 -31 28 -43 15 -13 37 -43 50 -67
28 -52 122 -185 173 -243 19 -22 66 -93 103 -156 38 -63 86 -139 108 -168 22
-30 53 -78 68 -107 15 -29 66 -118 113 -197 47 -78 111 -188 142 -243 51 -87
59 -96 66 -77 11 30 17 28 29 -10 10 -32 10 -32 4 7 -6 47 -30 127 -51 171 -8
18 -12 41 -9 51 3 11 -5 47 -19 82 -27 65 -28 95 -2 44 8 -15 25 -37 37 -48
l23 -20 -17 32 c-9 18 -16 34 -16 35 3 9 -69 185 -116 283 -48 102 -105 201
-166 290 -26 38 -48 73 -48 78 0 5 -14 22 -30 39 -17 16 -33 42 -36 56 -8 34
-26 54 -87 103 -27 22 -43 39 -35 39 8 0 20 -6 27 -12 11 -11 11 -9 2 9 -19
37 -12 50 11 20 11 -16 31 -33 44 -37 15 -6 22 -15 18 -25 -6 -15 42 -69 91
-101 14 -9 25 -21 25 -28 0 -7 -3 -7 -8 -1 -4 6 -18 19 -32 30 l-24 20 18 -30
c11 -16 25 -34 33 -38 7 -4 20 -22 29 -40 16 -32 107 -160 131 -185 7 -7 13
-17 13 -22 0 -4 17 -34 39 -66 21 -33 44 -77 51 -98 7 -22 25 -60 40 -85 39
-67 83 -164 121 -266 18 -49 52 -139 76 -200 l42 -110 -4 80 c-2 44 -8 92 -14
106 -5 14 -12 50 -16 80 -4 30 -11 56 -16 57 -5 2 -6 8 -3 14 3 5 -2 30 -11
54 -17 44 -13 73 5 44 18 -28 11 16 -11 72 -15 37 -18 58 -11 69 11 17 -1 48
-52 132 -37 63 -27 71 15 13 18 -25 33 -46 35 -46 7 0 -12 47 -23 58 -7 7 -13
20 -13 28 0 8 -5 14 -11 14 -6 0 -9 7 -5 15 3 9 -7 41 -23 73 -16 31 -36 74
-45 95 -10 25 -21 37 -32 35 -9 -2 -22 6 -30 18 -12 17 -12 23 -1 38 12 17 16
14 45 -30 33 -51 69 -93 99 -116 29 -21 143 -279 143 -323 0 -9 4 -14 9 -10
15 9 30 -27 24 -60 -4 -24 -2 -27 7 -15 9 12 10 11 5 -6 -3 -13 2 -31 16 -48
12 -15 22 -39 23 -54 1 -15 8 -38 15 -50 13 -25 105 -303 116 -353 4 -16 11
-29 17 -29 6 0 7 8 3 18 -4 10 -3 13 3 7 17 -18 40 -109 56 -213 8 -56 17
-106 20 -111 3 -4 12 -48 20 -97 8 -49 18 -104 22 -121 l7 -33 -268 0 -267 0
-151 -150 -150 -150 0 -572 0 -571 42 -44 c23 -23 44 -55 47 -70 12 -76 11
-91 -2 -128 -7 -22 -12 -29 -9 -16 6 37 -14 10 -21 -28 -5 -25 -4 -32 4 -27
16 10 15 -3 -3 -34 -8 -14 -14 -19 -15 -12 0 10 -4 9 -16 -3 -11 -11 -13 -20
-7 -26 11 -11 3 -64 -16 -110 -8 -19 -9 -11 -6 36 l5 60 -35 -95 c-20 -52 -37
-106 -39 -121 -1 -14 -12 -39 -24 -54 -12 -15 -22 -36 -22 -46 0 -11 -4 -19
-10 -19 -5 0 -10 10 -10 23 -1 19 -2 20 -11 5 -6 -11 -6 -25 -1 -35 6 -12 3
-33 -10 -63 l-18 -45 5 45 c5 40 4 43 -9 27 -7 -9 -19 -45 -26 -80 -6 -34 -20
-71 -30 -82 -21 -23 -35 -63 -31 -88 1 -9 -3 -16 -9 -15 -6 2 -30 -41 -52 -95
-45 -107 -61 -123 -29 -31 11 33 23 68 26 79 l7 20 -17 -20 c-37 -45 -63 -112
-59 -153 3 -42 -13 -72 -41 -72 -7 0 -17 -15 -21 -32 -4 -18 -9 -28 -11 -21
-2 7 3 28 12 48 15 31 25 39 46 37 3 -1 6 5 6 13 0 24 -42 11 -45 -13 -2 -14
-11 -22 -22 -22 -12 0 -25 -13 -36 -35 -20 -43 -28 -45 -19 -5 5 25 4 29 -9
24 -9 -3 -17 -14 -18 -23 0 -9 -2 -21 -2 -28 -1 -6 -5 -15 -10 -20 -5 -5 -6
-2 -1 6 6 10 4 12 -4 7 -9 -6 -9 -12 3 -25 20 -22 21 -51 2 -51 -8 0 -22 -14
-30 -31 -27 -54 -80 -118 -108 -131 -17 -8 -30 -23 -34 -40 -3 -16 -12 -28
-20 -28 -20 0 -18 6 16 56 42 62 4 35 -44 -32 -22 -30 -46 -54 -53 -54 -7 0
-18 -11 -23 -25 -5 -14 -22 -37 -37 -51 -16 -14 -28 -36 -28 -49 -1 -12 -13
-38 -28 -58 -15 -20 -27 -39 -27 -44 -1 -4 -12 -21 -26 -38 -13 -16 -22 -22
-18 -12 3 9 1 17 -5 17 -6 0 -11 -6 -11 -12 -1 -23 -29 -53 -40 -42 -7 7 7 30
43 70 59 66 87 104 87 118 0 13 -29 -19 -61 -65 -13 -20 -48 -58 -78 -85 -30
-27 -66 -62 -80 -78 -14 -16 -35 -36 -45 -45 -29 -24 -178 -153 -200 -173 -11
-10 -29 -21 -40 -24 -32 -10 -105 -65 -111 -83 -5 -16 -68 -60 -72 -51 -2 3
-10 -5 -18 -17 -9 -13 -22 -23 -29 -23 -7 0 -21 -9 -31 -20 -10 -11 -58 -45
-107 -76 -48 -31 -88 -59 -88 -63 0 -4 -9 -7 -20 -8 -19 -2 -89 -45 -142 -88
-14 -12 -44 -25 -65 -28 -22 -4 -48 -16 -58 -27 -10 -11 -23 -20 -30 -20 -6 0
-29 -13 -51 -28 -21 -16 -55 -34 -74 -41 -58 -22 -104 -43 -130 -61 -14 -9
-45 -22 -70 -29 -24 -7 -72 -28 -106 -47 -34 -19 -68 -34 -76 -34 -7 1 -2 7
12 15 15 9 19 14 10 15 -9 0 -24 -6 -35 -13 -28 -19 -102 -45 -150 -53 -22 -3
-50 -13 -63 -21 -12 -7 -26 -11 -31 -9 -5 3 -46 -8 -92 -26 -46 -17 -104 -34
-129 -39 -25 -4 -90 -17 -145 -29 -140 -29 -175 -35 -275 -45 -36 -4 -72 -9
-81 -10 -130 -24 -768 -24 -909 0 -14 2 -50 7 -80 10 -30 4 -66 8 -80 10 -14
2 -72 11 -130 20 -58 9 -152 28 -210 42 -58 13 -113 26 -122 28 -96 20 -447
132 -533 170 -16 7 -55 23 -85 35 -148 61 -357 166 -525 264 -149 87 -419 275
-533 371 -136 115 -199 172 -302 275 -179 179 -261 273 -397 451 -269 355
-479 747 -622 1163 -23 65 -41 120 -41 123 0 2 7 3 16 1 10 -2 26 -34 43 -88
15 -47 44 -122 64 -166 19 -45 43 -105 51 -134 9 -30 22 -60 30 -69 7 -9 21
-38 30 -66 9 -27 32 -76 51 -108 19 -32 35 -61 35 -66 0 -4 14 -26 31 -49 17
-24 39 -64 49 -90 10 -26 24 -47 31 -47 8 0 15 -9 17 -19 2 -11 19 -41 38 -68
19 -26 32 -48 28 -48 -3 0 16 -27 41 -60 25 -33 51 -73 56 -89 6 -16 19 -31
30 -34 10 -3 19 -13 19 -22 0 -10 15 -35 33 -55 70 -82 92 -111 92 -121 0 -9
247 -273 284 -303 7 -6 25 -24 40 -40 40 -43 86 -89 107 -105 11 -8 39 -33 64
-55 79 -71 123 -107 215 -176 128 -96 391 -270 408 -270 8 0 22 -9 33 -21 10
-11 72 -48 139 -81 66 -34 150 -76 186 -95 36 -18 103 -46 149 -62 45 -16 86
-34 89 -39 3 -5 33 -17 66 -26 33 -9 77 -24 99 -32 34 -13 40 -13 56 1 23 20
42 19 63 -5 23 -28 22 -30 -13 -23 -56 11 -30 -4 53 -30 114 -37 234 -67 282
-71 22 -1 52 -9 65 -16 14 -7 36 -15 50 -16 14 -1 61 -10 105 -19 44 -9 112
-18 150 -20 39 -2 99 -7 135 -10 36 -3 94 -8 130 -11 36 -3 79 -9 95 -12 38
-9 451 -8 528 1 31 4 82 9 112 12 30 3 81 7 113 10 80 8 113 15 107 25 -3 4 3
11 12 14 9 4 20 1 24 -5 7 -11 46 -9 118 5 34 8 41 20 8 14 -18 -4 -25 -2 -19
4 5 5 18 9 28 8 79 -3 108 -1 173 13 44 9 78 22 83 31 5 9 14 16 19 16 6 0 7
-5 4 -10 -8 -13 17 -13 47 -1 13 5 50 18 83 27 62 18 78 30 70 52 -2 6 1 12 8
12 7 0 30 12 51 26 21 15 46 24 56 21 12 -3 31 5 47 19 32 27 50 31 50 10 0
-8 -4 -14 -8 -13 -4 1 -6 -1 -5 -6 2 -10 -52 -37 -76 -37 -24 0 -70 -23 -87
-44 -18 -21 -2 -20 29 1 13 9 33 18 44 19 41 6 61 11 96 26 19 9 49 21 65 27
l30 11 -32 -5 c-40 -6 -41 -1 -5 20 24 14 12 13 -25 -2 -7 -3 -13 2 -13 10 0
19 19 26 56 22 17 -1 35 5 48 17 29 28 91 58 118 58 13 0 37 8 53 18 17 10 59
31 95 47 36 16 74 36 85 45 11 9 40 25 65 34 25 10 59 28 75 40 48 36 179 111
189 108 5 -2 21 8 35 22 14 13 67 51 116 84 87 57 151 112 98 83 -13 -6 -23
-8 -23 -3 0 5 14 16 32 23 18 7 49 31 70 52 21 22 38 35 38 29 0 -6 -20 -28
-45 -48 -24 -21 -42 -41 -40 -45 3 -4 23 10 44 30 22 20 53 48 70 62 31 26 40
49 21 49 -5 0 -10 -8 -10 -18 0 -10 -7 -19 -14 -19 -23 0 -3 30 46 68 24 19
53 45 66 59 19 21 24 23 32 10 8 -13 13 -11 32 9 19 19 20 23 5 18 -17 -6 -17
-6 0 23 9 16 20 25 23 20 3 -5 28 13 55 40 27 28 56 50 65 50 8 1 24 20 36 43
12 25 27 41 37 41 9 -1 26 9 38 22 12 13 17 24 11 24 -6 0 -18 -10 -27 -22
-10 -13 -15 -18 -14 -11 10 32 115 143 133 140 6 -1 11 6 11 16 0 9 15 26 34
38 18 11 30 23 27 27 -4 3 -11 0 -16 -8 -6 -8 -10 -12 -10 -8 0 5 25 38 55 75
30 38 58 78 61 90 3 13 12 23 18 23 7 0 21 7 32 16 19 15 18 15 -3 11 -30 -7
-29 5 5 45 16 18 32 42 37 53 7 18 9 18 12 3 3 -10 9 -18 14 -18 13 0 11 24
-3 38 -9 9 -9 15 0 24 10 10 15 10 21 -1 7 -10 11 -8 17 10 4 13 8 27 9 31 0
3 14 21 30 40 17 18 44 56 61 84 25 41 28 52 17 63 -20 18 -35 0 -71 -89 -16
-41 -71 -110 -87 -110 -8 0 -15 -9 -15 -19 0 -11 -4 -23 -10 -26 -6 -3 -10 4
-10 16 0 22 0 22 -15 3 -8 -10 -15 -29 -15 -40 0 -12 -7 -27 -15 -34 -8 -7
-15 -20 -15 -29 0 -12 -2 -13 -9 -3 -6 10 -14 5 -30 -22 -13 -20 -29 -36 -37
-36 -8 0 -14 -8 -14 -18 0 -10 -11 -29 -25 -42 -13 -12 -22 -27 -19 -31 6 -11
-20 -51 -28 -44 -3 3 -19 -16 -37 -43 -31 -49 -81 -102 -81 -87 0 5 -12 -2
-27 -16 -14 -13 -22 -17 -18 -9 5 8 21 26 37 39 15 13 28 29 28 35 0 7 18 30
40 51 22 21 40 45 40 52 0 13 -21 -9 -81 -81 -13 -17 -41 -49 -61 -72 -39 -42
-48 -60 -25 -49 6 4 3 -1 -7 -9 -11 -9 -25 -16 -32 -16 -6 0 -15 -7 -18 -16
-6 -15 -4 -15 11 -3 15 12 15 11 -1 -13 -19 -28 -32 -38 -21 -15 3 6 -2 1 -12
-12 -27 -37 -124 -133 -129 -129 -2 3 -32 -23 -66 -56 -73 -70 -114 -107 -152
-131 -25 -17 -26 -17 -20 1 5 15 2 14 -15 -5 -12 -12 -18 -28 -14 -34 4 -6 -3
-8 -20 -3 -14 3 -29 2 -32 -4 -3 -5 1 -10 9 -10 19 0 -66 -84 -107 -106 -15
-8 -44 -33 -64 -55 -24 -26 -41 -38 -53 -34 -10 3 -23 -2 -31 -11 -24 -29 -91
-74 -101 -68 -5 4 -25 -8 -43 -26 -23 -22 -35 -28 -40 -20 -5 8 -1 16 9 22 9
5 16 13 16 19 0 12 -72 -33 -135 -85 -85 -71 -86 -71 -79 -52 9 23 4 21 -99
-29 -51 -25 -100 -45 -108 -45 -9 0 -26 -9 -39 -20 -13 -11 -34 -20 -47 -20
-14 0 -23 -6 -23 -15 0 -8 -7 -15 -15 -15 -9 0 -50 -16 -91 -35 -41 -20 -79
-33 -83 -31 -4 3 -76 -17 -160 -44 -150 -49 -249 -73 -263 -64 -4 3 -18 -1
-30 -8 -13 -7 -25 -13 -28 -13 -3 0 -14 -6 -25 -12 -11 -6 -37 -9 -57 -8 -21
1 -64 -4 -95 -11 -124 -28 -257 -46 -353 -46 -41 -1 -77 -4 -80 -8 -13 -20
-691 -10 -715 10 -6 5 -52 11 -103 14 -51 3 -96 7 -100 10 -4 2 -25 7 -47 10
-22 4 -76 15 -120 27 -44 11 -97 22 -118 24 -89 10 -487 135 -639 201 -46 20
-103 42 -128 50 -25 8 -81 34 -125 59 -44 25 -118 66 -165 90 -47 25 -98 54
-115 65 -16 11 -46 28 -65 39 -19 11 -44 28 -55 38 -11 10 -46 33 -79 51 -32
19 -112 76 -178 128 -66 52 -124 94 -128 94 -5 0 -11 8 -14 18 -3 9 -23 28
-43 42 -21 14 -111 97 -201 185 -90 88 -167 162 -171 165 -3 3 -18 21 -33 40
-14 19 -47 58 -72 85 -25 28 -46 53 -46 57 0 4 -28 44 -63 90 -268 352 -496
774 -613 1136 -18 57 -38 109 -43 116 -6 7 -9 15 -6 18 3 3 -4 34 -16 69 -35
110 -90 341 -87 369 1 15 -4 35 -11 44 -10 12 -11 20 -3 28 7 7 8 17 2 29 -6
9 -12 32 -14 51 -23 165 -30 299 -30 558 0 223 3 281 20 450 5 55 39 282 49
330 2 14 7 39 11 55 27 132 74 307 123 454 203 611 517 1112 1004 1602 75 76
158 152 183 170 25 17 69 54 97 81 29 27 66 57 82 65 17 9 35 24 42 33 7 9 42
36 78 60 36 23 65 46 65 51 0 5 4 9 9 9 4 0 86 45 182 101 215 124 347 188
475 230 55 18 105 37 112 43 8 5 24 12 35 13 48 8 95 24 106 37 7 8 20 12 30
9 10 -3 22 0 25 6 4 6 20 11 35 11 15 0 31 4 36 9 14 13 138 51 217 66 10 2
20 0 23 -4 2 -5 22 0 43 10 22 11 52 22 68 24 16 2 49 11 73 20 24 9 50 14 56
11 7 -2 62 8 122 23 61 16 117 25 128 21 12 -4 24 -2 30 5 14 18 114 35 141
24 13 -4 36 -4 54 1 19 5 28 5 25 -1 -4 -5 -1 -9 4 -9 6 0 11 6 11 13 0 10 19
13 78 13 42 -1 90 1 105 4 58 10 392 5 412 -7z m168 0 c-7 -2 -21 -2 -30 0
-10 3 -4 5 12 5 17 0 24 -2 18 -5z m3446 -1612 c8 -5 16 -17 17 -26 1 -9 11
-26 20 -38 11 -13 8 -11 -6 3 -14 14 -36 35 -50 47 -17 15 -20 22 -10 22 8 1
21 -3 29 -8z m292 -404 l22 -32 -32 32 c-17 18 -31 35 -31 38 0 12 19 -6 41
-38z m837 -572 c-3 -3 -9 2 -12 12 -6 14 -5 15 5 6 7 -7 10 -15 7 -18z
m-10427 -625 c-3 -19 -11 -36 -18 -37 -8 -2 -9 6 -3 27 17 59 32 66 21 10z
m-14 -87 c-3 -10 -5 -4 -5 12 0 17 2 24 5 18 2 -7 2 -21 0 -30z m1143 -253
c-5 -17 -9 -33 -9 -35 0 -3 -2 -24 -5 -48 -3 -23 -8 -68 -10 -100 -3 -32 -8
-62 -11 -65 -4 -4 -5 25 -1 63 3 39 9 99 12 135 7 78 11 93 23 85 6 -3 6 -17
1 -35z m9336 -349 c17 -78 57 -175 76 -187 4 -3 11 3 14 13 4 10 15 36 25 58
10 22 20 63 22 90 l3 50 51 2 c49 2 51 0 114 -63 l64 -65 0 -415 0 -415 -63
-62 -62 -62 -333 0 -332 -1 -64 61 -63 61 -1 230 c0 210 3 280 19 388 4 27 3
36 -5 32 -7 -4 -11 1 -11 13 0 11 4 22 9 25 10 6 3 54 -9 61 -5 3 -6 24 -3 48
5 35 16 52 65 103 l60 60 209 1 209 0 6 -26z m-10587 -138 c1 -21 2 -45 1 -53
-1 -8 -3 -36 -3 -62 -3 -88 -17 -36 -17 63 0 55 4 98 8 95 5 -3 10 -22 11 -43z
m-8 -278 c2 -33 8 -66 13 -74 14 -18 17 -71 4 -71 -5 0 -4 -9 2 -20 7 -14 8
-26 0 -39 -10 -20 -7 -143 5 -172 3 -10 1 -20 -5 -24 -8 -5 -8 -11 0 -20 5 -7
9 -23 7 -36 -2 -13 2 -38 10 -56 23 -55 17 -68 -16 -37 l-30 28 0 294 c0 162
1 293 4 291 2 -2 5 -31 6 -64z m1282 -355 c3 -47 13 -105 21 -129 9 -24 14
-46 12 -50 -3 -4 0 -25 5 -47 6 -21 14 -55 19 -74 5 -19 11 -48 14 -65 3 -16
13 -55 21 -85 20 -73 19 -81 -5 -43 -20 33 -53 156 -76 283 -4 25 -8 47 -9 50
-14 68 -17 97 -17 160 1 90 1 94 6 89 2 -2 6 -42 9 -89z m-1030 -1040 c3 -11
1 -18 -4 -14 -5 3 -9 12 -9 20 0 20 7 17 13 -6z m72 -100 c6 -23 5 -22 -13 5
-11 17 -17 34 -14 39 6 10 17 -8 27 -44z m-4 -87 c5 -29 4 -62 -2 -55 -14 14
-22 62 -10 62 6 0 12 -3 12 -7z m49 -137 c-1 -19 -2 -19 -15 4 -20 35 -19 62
0 36 8 -11 15 -29 15 -40z m18 -51 c-3 -3 -9 2 -12 12 -6 14 -5 15 5 6 7 -7
10 -15 7 -18z m207 -555 c21 -22 34 -40 29 -40 -6 0 -19 9 -29 20 -10 11 -21
18 -25 15 -4 -2 -12 7 -18 20 -17 36 -2 31 43 -15z m9284 -92 c-13 -18 -31
-40 -41 -49 -10 -9 -15 -18 -13 -21 3 -3 -8 -22 -25 -43 -16 -21 -30 -41 -30
-44 0 -3 -9 -12 -21 -19 -18 -12 -19 -11 -10 6 5 10 17 25 26 32 9 8 25 32 36
54 17 37 82 116 95 116 3 0 -5 -15 -17 -32z m-223 -57 c-15 -15 -16 -13 -4 19
9 26 13 30 16 16 2 -10 -3 -26 -12 -35z m94 -15 c0 -8 -4 -18 -10 -21 -5 -3
-10 -11 -10 -16 0 -6 5 -7 11 -3 7 4 7 -2 -1 -17 -18 -34 -24 -38 -17 -11 7
31 0 28 -18 -9 -17 -32 -12 -55 6 -29 7 11 8 6 3 -15 -8 -33 -29 -68 -86 -136
-37 -44 -49 -67 -28 -54 16 10 -10 -53 -28 -67 -14 -11 -14 -10 1 12 9 13 17
31 17 39 0 21 -56 -34 -78 -78 -10 -19 -23 -36 -28 -38 -15 -5 -11 41 5 60 17
22 3 22 -20 1 -16 -15 -17 -14 -12 5 3 12 12 21 19 21 8 0 17 7 20 15 3 8 15
17 25 20 21 7 22 42 1 38 -22 -5 -12 7 14 17 16 6 32 25 42 50 11 25 24 40 35
40 9 0 17 4 17 10 0 5 15 30 34 54 18 24 42 63 52 85 19 41 34 53 34 27z
m-8886 -208 c-3 -5 -7 -8 -8 -6 -1 2 -10 17 -20 33 l-19 30 26 -24 c15 -13 24
-28 21 -33z m8186 -153 c-7 -8 -16 -15 -21 -15 -5 0 -1 9 8 20 9 11 19 17 21
15 3 -3 -1 -11 -8 -20z m660 -38 c0 -2 -19 -21 -42 -42 l-41 -40 34 42 c29 36
49 52 49 40z m-250 -43 c-5 -13 -7 -24 -4 -24 3 0 -4 -13 -16 -30 -12 -16 -17
-30 -11 -30 8 0 7 -6 -1 -19 -6 -10 -17 -17 -23 -15 -6 3 -36 -14 -66 -38 -51
-40 -49 -30 6 29 12 12 27 34 35 50 8 15 27 42 43 60 16 17 26 36 23 42 -4 7
-1 9 8 5 11 -4 13 -12 6 -30z m-762 -276 c-8 -12 -21 -24 -29 -26 -8 -3 -3 7
10 22 30 32 39 34 19 4z m187 -807 c-18 -30 -165 -126 -165 -108 0 5 160 117
168 117 2 0 1 -4 -3 -9z m-5070 -211 c11 -5 14 -9 8 -9 -7 -1 -13 -6 -13 -11
0 -6 17 -10 38 -9 20 1 48 -4 62 -10 23 -10 21 -11 -17 -8 -23 1 -39 -1 -37
-5 3 -5 0 -8 -5 -8 -6 0 -11 5 -11 10 0 6 -6 10 -13 10 -8 0 -24 11 -37 25
-24 26 -14 32 25 15z m-69 -16 c18 -14 18 -14 -6 -3 -31 14 -36 19 -24 19 6 0
19 -7 30 -16z m57 -28 c24 -19 2 -26 -37 -13 -27 9 -28 11 -10 18 26 10 27 10
47 -5z m46 -35 c8 -5 9 -11 3 -15 -6 -3 -13 -2 -17 4 -4 6 -11 8 -16 5 -5 -4
-9 -1 -9 4 0 13 20 14 39 2z m195 -15 c76 -16 81 -19 81 -48 0 -12 7 -22 15
-24 8 -1 31 -5 50 -8 l35 -6 -32 10 c-18 6 -35 15 -39 21 -4 7 0 9 12 5 11 -3
34 -8 53 -11 43 -7 51 -12 51 -31 0 -9 11 -14 31 -14 19 0 28 4 23 11 -6 10 8
10 111 -6 46 -7 138 -14 120 -9 -44 13 -33 21 16 13 47 -8 92 -28 58 -26 -8 0
-25 -1 -39 -1 -24 -2 -24 -2 -5 -16 11 -7 38 -13 60 -12 22 1 51 -2 65 -7 14
-5 35 -9 48 -8 12 0 22 -4 22 -9 0 -6 -8 -10 -17 -10 -9 0 -14 -3 -11 -6 3 -3
43 -8 89 -11 46 -3 91 -9 99 -13 22 -11 40 -1 33 17 -5 14 -1 15 28 8 19 -4
55 -8 81 -9 25 0 49 -4 53 -8 4 -4 21 -4 39 -1 28 6 30 5 17 -10 -12 -15 -11
-17 8 -18 11 -1 26 -3 31 -4 6 -1 17 -3 27 -4 9 0 13 -4 10 -7 -3 -4 -31 -6
-62 -5 -39 1 -54 -3 -49 -10 5 -8 -10 -9 -52 -4 -32 3 -62 9 -66 11 -5 3 -43
7 -86 9 -42 1 -101 8 -130 15 -36 8 -57 9 -64 2 -6 -6 -38 -2 -93 13 -46 13
-86 21 -89 18 -3 -4 -14 1 -23 9 -11 10 -54 20 -108 26 -94 11 -188 33 -242
58 -17 8 -42 14 -55 14 -13 0 -33 7 -44 15 -10 8 -30 15 -44 15 -15 0 -30 4
-35 8 -6 5 -30 14 -55 21 -61 18 -101 33 -97 37 1 2 24 -3 50 -11 26 -8 66
-16 89 -19 l43 -5 -30 14 c-16 8 -45 14 -62 15 -18 0 -33 5 -33 10 0 14 33 13
114 -4z m895 -182 c2 -2 -29 -4 -70 -4 -46 0 -69 4 -60 9 12 8 120 4 130 -5z
m3056 -62 c-6 -5 -23 -18 -39 -30 -16 -12 -24 -22 -17 -22 6 0 11 -4 11 -10 0
-13 -98 -62 -110 -55 -15 10 -51 -5 -44 -17 5 -7 2 -8 -5 -4 -19 12 14 44 45
44 15 0 40 13 62 34 42 40 82 68 96 68 6 0 6 -3 1 -8z m-525 -162 c-19 -12
-30 -12 -30 -1 0 10 31 20 40 14 2 -2 -2 -8 -10 -13z m-4315 0 c3 -5 20 -13
38 -18 20 -5 26 -10 17 -13 -8 -3 -33 5 -55 18 -22 12 -32 23 -23 23 9 0 20
-4 23 -10z m2073 -194 c-10 -7 -31 -11 -50 -8 -28 4 -30 6 -13 13 11 4 34 8
50 8 27 0 28 -1 13 -13z m-411 -31 c0 -9 -10 -15 -24 -15 -22 0 -30 10 -16 23
12 13 40 7 40 -8z m1618 -55 c-11 -5 -29 -9 -40 -9 l-20 0 20 9 c11 5 29 9 40
9 l20 0 -20 -9z m-1248 -16 c-3 -3 -12 -4 -19 -1 -8 3 -5 6 6 6 11 1 17 -2 13
-5z m653 -10 c0 -2 -28 -3 -62 -3 -56 2 -58 3 -23 8 38 6 85 3 85 -5z m-1723
-10 c-3 -3 -12 -4 -19 -1 -8 3 -5 6 6 6 11 1 17 -2 13 -5z m2248 -74 c6 -9
-44 -40 -65 -40 -26 0 13 35 57 49 1 1 4 -3 8 -9z m-178 -27 c-9 -2 -15 -9
-12 -14 4 -5 -4 -9 -16 -9 -22 0 -22 0 -3 15 10 8 26 14 34 14 10 -1 10 -3 -3
-6z"/>
<path d="M8860 13239 c-22 -5 0 -6 55 -2 50 3 92 7 94 9 7 7 -112 2 -149 -7z"/>
<path d="M9020 13246 c0 -9 37 -12 55 -5 15 6 11 8 -17 8 -21 1 -38 -1 -38 -3z"/>
<path d="M8530 13220 c-25 -4 -72 -10 -105 -14 -32 -3 -64 -11 -70 -17 -7 -7
-5 -9 5 -5 8 3 38 8 65 10 127 13 165 19 165 27 0 5 -3 8 -7 8 -5 -1 -28 -5
-53 -9z"/>
<path d="M8805 8868 l0 -883 180 0 180 0 1 705 1 705 -176 178 c-97 97 -178
177 -181 177 -3 0 -5 -397 -5 -882z"/>
<path d="M6003 9013 c0 -395 3 -724 7 -732 4 -7 71 -78 150 -156 l142 -143
520 0 520 1 149 151 149 150 0 723 0 723 -180 0 -180 0 0 -647 0 -646 -62 -61
-63 -62 -335 1 -335 0 -62 64 -63 63 0 644 0 644 -178 0 -179 0 0 -717z"/>
<path d="M10330 8856 l0 -874 180 0 180 0 2 555 3 555 95 -113 c52 -63 102
-123 112 -134 17 -21 577 -694 606 -730 10 -12 38 -46 64 -77 l48 -56 174 0
175 1 0 873 0 874 -180 0 -179 0 -2 -556 -3 -556 -419 504 c-230 276 -439 527
-463 556 l-45 52 -174 0 -174 0 0 -874z"/>
<path d="M12854 7827 c-13 -16 -24 -67 -14 -67 9 0 20 24 26 58 5 25 3 26 -12
9z"/>
<path d="M12797 7710 c-13 -13 -15 -20 -7 -25 15 -9 42 16 32 31 -5 8 -13 6
-25 -6z"/>
<path d="M12702 7493 c-10 -34 -10 -36 3 -19 13 17 21 56 12 56 -2 0 -9 -17
-15 -37z"/>
<path d="M12663 7449 c-7 -7 -13 -22 -13 -32 0 -11 -10 -30 -22 -43 -13 -12
-23 -33 -24 -46 0 -13 -4 -34 -8 -48 -8 -25 -8 -25 10 -6 11 11 20 30 21 44 0
14 5 27 11 31 15 10 44 78 40 96 -2 13 -5 14 -15 4z"/>
<path d="M12715 7060 c-3 -5 -1 -10 4 -10 6 0 11 5 11 10 0 6 -2 10 -4 10 -3
0 -8 -4 -11 -10z"/>
<path d="M12263 6918 c-6 -7 -13 -22 -16 -33 -6 -17 -4 -17 13 4 11 13 20 27
20 32 0 12 -6 11 -17 -3z"/>
<path d="M12516 6848 c-7 -35 0 -52 9 -22 4 10 11 27 16 37 7 12 5 17 -5 17
-7 0 -16 -14 -20 -32z"/>
<path d="M12068 6400 c-9 -17 -14 -30 -9 -30 13 0 52 46 44 53 -11 12 -17 8
-35 -23z"/>
<path d="M11953 6273 c-12 -13 -17 -23 -10 -23 20 0 39 17 35 31 -2 10 -9 8
-25 -8z"/>
<path d="M11558 6169 l-33 -31 32 22 c18 11 35 25 38 30 12 19 -5 9 -37 -21z"/>
<path d="M11748 6114 c-36 -19 -35 -24 4 -21 22 2 34 8 36 20 4 21 -4 21 -40
1z"/>
<path d="M11658 6024 c-21 -15 -35 -31 -32 -35 6 -10 74 38 74 52 0 12 -1 12
-42 -17z"/>
<path d="M11178 5891 c-25 -16 -49 -34 -52 -40 -4 -6 16 3 44 21 45 28 69 48
58 48 -2 0 -25 -13 -50 -29z"/>
<path d="M11473 5889 c-25 -9 -31 -29 -10 -29 19 0 52 26 41 32 -5 3 -19 2
-31 -3z"/>
<path d="M11384 5819 c-19 -21 -19 -21 9 -8 15 7 27 16 27 21 0 14 -16 9 -36
-13z"/>
<path d="M11095 5810 c-3 -6 1 -7 9 -4 18 7 21 14 7 14 -6 0 -13 -4 -16 -10z"/>
<path d="M11290 5765 c-6 -8 -32 -26 -57 -40 -55 -33 -51 -42 8 -17 48 21 86
56 71 66 -5 3 -15 -1 -22 -9z"/>
<path d="M11126 5654 c-15 -14 -26 -27 -24 -29 2 -3 20 9 39 25 19 16 30 29
24 29 -5 0 -23 -11 -39 -25z"/>
<path d="M11044 5620 c-48 -10 -57 -19 -39 -36 13 -13 17 -12 33 4 11 11 26
22 33 24 25 9 5 15 -27 8z"/>
<path d="M10716 5450 c-44 -37 -46 -40 -23 -40 14 0 29 5 33 12 5 7 2 8 -7 3
-9 -5 -11 -5 -4 2 6 5 30 15 55 22 54 16 95 41 67 41 -10 0 -29 -7 -43 -16
-13 -9 -28 -14 -32 -10 -3 4 0 11 8 16 8 6 10 10 5 10 -6 0 -32 -18 -59 -40z"/>
<path d="M10600 5410 c-20 -16 -21 -19 -5 -13 18 6 18 5 6 -10 -16 -20 -11
-21 23 -6 29 14 42 49 18 49 -10 0 -28 -9 -42 -20z"/>
<path d="M13066 6249 c-18 -30 -17 -47 2 -35 13 8 33 66 24 66 -4 0 -16 -14
-26 -31z"/>
<path d="M7825 4519 c-3 -4 4 -11 16 -14 31 -10 69 -13 69 -6 0 11 -80 29 -85
20z"/>
<path d="M7940 4490 c8 -5 24 -10 35 -10 17 0 17 2 5 10 -8 5 -24 10 -35 10
-17 0 -17 -2 -5 -10z"/>
<path d="M10155 14440 c-4 -6 8 -10 31 -10 40 0 39 12 -1 17 -13 2 -26 -1 -30
-7z"/>
<path d="M9995 14430 c7 -12 65 -14 65 -2 0 4 -16 8 -36 10 -21 1 -33 -2 -29
-8z"/>
<path d="M7625 14390 c-3 -5 -16 -10 -28 -11 -21 0 -21 -1 -2 -8 20 -8 55 6
55 21 0 11 -18 10 -25 -2z"/>
<path d="M7444 14364 c-53 -13 -124 -39 -124 -45 0 -11 47 -12 52 -1 2 4 32
18 68 29 50 17 53 28 4 17z"/>
<path d="M7665 14356 c-14 -10 -15 -15 -6 -21 8 -4 19 -1 28 8 20 19 1 30 -22
13z"/>
<path d="M10355 14350 c48 -21 203 -63 229 -62 16 0 34 -5 40 -13 12 -14 109
-38 100 -24 -3 5 -9 9 -14 9 -5 0 -21 5 -37 12 -15 6 -30 12 -33 13 -3 1 -16
6 -30 12 -23 10 -52 17 -105 27 -11 2 -38 8 -60 14 -63 16 -114 23 -90 12z"/>
<path d="M10650 14310 c-12 -8 -12 -10 2 -15 20 -8 41 2 33 16 -8 11 -16 11
-35 -1z"/>
<path d="M11010 14305 c0 -6 63 -35 75 -35 12 0 3 18 -12 25 -27 10 -63 16
-63 10z"/>
<path d="M10790 14223 c1 -9 65 -43 81 -43 19 0 -3 20 -38 35 -41 17 -43 18
-43 8z"/>
<path d="M11210 14225 c0 -5 79 -41 135 -61 64 -24 27 1 -54 35 -76 32 -81 34
-81 26z"/>
<path d="M10903 14136 c38 -26 87 -35 87 -16 0 6 -10 10 -23 10 -13 0 -27 4
-32 9 -6 4 -23 12 -40 15 -29 7 -29 7 8 -18z"/>
<path d="M11073 14100 c1 -15 6 -18 27 -13 35 8 35 9 1 21 -26 9 -29 8 -28 -8z"/>
<path d="M11634 13835 c9 -9 20 -24 26 -33 8 -12 13 -14 16 -4 3 6 11 9 17 5
6 -3 22 -7 36 -9 14 -1 43 -9 64 -18 58 -26 43 -9 -23 24 -33 17 -60 26 -60
20 0 -6 -18 -1 -40 10 -47 24 -57 25 -36 5z"/>
<path d="M11907 13707 c4 -6 8 -19 8 -27 0 -12 27 -31 159 -111 14 -9 17 -8
14 3 -2 7 -34 29 -71 49 -37 19 -75 43 -85 53 -21 23 -17 21 86 -32 45 -23 82
-39 82 -36 0 4 18 -10 39 -29 22 -20 55 -43 73 -52 18 -8 25 -10 15 -3 -37 25
-102 90 -84 84 33 -11 7 14 -36 34 -23 11 -34 15 -24 8 10 -7 26 -19 35 -25
34 -25 -21 -8 -73 22 -72 43 -147 77 -138 62z"/>
<path d="M5681 13471 c-12 -11 -18 -22 -12 -25 10 -7 41 19 41 35 0 13 -4 11
-29 -10z"/>
<path d="M12193 13477 c2 -6 28 -25 58 -40 30 -16 68 -41 84 -56 17 -15 43
-31 58 -34 14 -4 39 -12 54 -18 15 -6 28 -9 28 -8 0 1 18 -9 40 -23 22 -14 51
-31 65 -38 l25 -13 -20 23 c-21 24 -86 60 -107 60 -7 0 -22 14 -33 31 -20 31
-50 48 -183 99 -42 16 -72 24 -69 17z"/>
<path d="M12540 13242 c0 -6 18 -26 40 -43 40 -32 70 -45 70 -30 0 12 -45 51
-60 51 -7 0 -22 7 -32 17 -10 9 -18 11 -18 5z"/>
<path d="M5164 13085 c-21 -19 -34 -35 -29 -34 13 0 78 59 72 65 -2 2 -22 -11
-43 -31z"/>
<path d="M12702 13101 c18 -25 68 -55 68 -41 0 8 -32 33 -69 55 -11 6 -11 3 1
-14z"/>
<path d="M4927 12869 c-15 -12 -32 -31 -39 -42 -11 -21 -10 -21 8 -7 21 17 64
61 64 66 0 6 -4 4 -33 -17z"/>
<path d="M12925 12840 c3 -5 11 -10 16 -10 6 0 7 5 4 10 -3 6 -11 10 -16 10
-6 0 -7 -4 -4 -10z"/>
<path d="M4081 11677 c-6 -8 -18 -31 -27 -53 -14 -34 -14 -37 0 -24 15 14 50
90 42 90 -2 0 -9 -6 -15 -13z"/>
<path d="M4111 11676 c-7 -8 -8 -17 -3 -20 6 -3 13 1 16 10 9 23 2 28 -13 10z"/>
<path d="M3640 10691 c-12 -24 -13 -54 -1 -47 8 5 22 66 15 66 -2 0 -8 -9 -14
-19z"/>
<path d="M605 8858 l0 -873 653 -1 652 -2 0 167 0 166 -472 0 -473 0 -1 185
-1 185 411 0 411 0 2 172 2 172 -362 0 c-199 0 -385 0 -413 1 l-51 0 0 184 1
183 393 -1 393 -1 167 168 168 167 -740 0 -740 0 0 -872z"/>
<path d="M15876 9718 c7 -13 46 -66 71 -98 35 -45 547 -736 556 -751 9 -14 -4
-37 -75 -130 -85 -114 -352 -474 -478 -644 -36 -49 -69 -95 -73 -101 -5 -8 57
-11 224 -12 l230 0 124 166 c68 92 128 172 132 177 5 6 39 53 77 105 38 52 73
99 77 104 6 7 123 -144 354 -459 32 -44 63 -83 68 -87 18 -12 468 -6 458 6 -4
6 -128 173 -276 371 -147 198 -289 389 -316 424 l-49 63 19 27 c11 14 78 105
150 201 72 96 137 184 145 195 8 11 61 83 118 160 57 77 130 175 161 218 l57
77 -233 0 -233 0 -41 -57 c-23 -32 -54 -74 -68 -93 -15 -19 -90 -120 -168
-224 -140 -189 -140 -190 -156 -166 -9 14 -103 140 -208 282 l-193 258 -231 0
c-181 0 -229 -3 -223 -12z"/>
<path d="M13226 7784 c-3 -9 -6 -25 -6 -35 0 -11 -4 -17 -10 -14 -5 3 -10 -2
-10 -12 1 -29 40 23 40 53 0 28 -5 31 -14 8z"/>
<path d="M3610 7717 c0 -23 30 -119 41 -131 15 -16 10 5 -16 79 -13 39 -25 62
-25 52z"/>
<path d="M13945 7571 c-12 -39 -14 -61 -4 -66 5 -4 9 -3 10 2 0 4 2 25 5 46 5
40 -1 49 -11 18z"/>
<path d="M13115 7520 c-19 -36 -20 -62 -2 -35 14 20 28 65 21 65 -2 0 -10 -13
-19 -30z"/>
<path d="M13906 7443 c-9 -30 -18 -108 -12 -102 8 7 27 111 22 116 -2 3 -7 -4
-10 -14z"/>
<path d="M13646 7341 c-13 -21 -25 -61 -17 -61 4 0 12 16 18 35 11 34 10 45
-1 26z"/>
<path d="M13608 7323 c-16 -18 -33 -63 -24 -63 7 0 49 71 44 76 -3 2 -12 -4
-20 -13z"/>
<path d="M13088 7293 c-30 -36 -30 -47 0 -19 18 17 32 31 32 33 0 9 -19 1 -32
-14z"/>
<path d="M13582 7232 c-7 -5 -10 -16 -6 -25 7 -18 24 -23 24 -8 0 5 3 16 6 25
7 17 -3 20 -24 8z"/>
<path d="M13147 7054 c-23 -30 -19 -47 6 -29 10 7 17 22 15 33 -3 19 -4 19
-21 -4z"/>
<path d="M13582 6988 c-11 -18 -23 -44 -27 -58 -6 -20 -2 -18 18 11 25 37 43
79 33 79 -2 0 -13 -15 -24 -32z"/>
<path d="M12904 6992 c-17 -11 -44 -55 -44 -71 0 -8 14 5 31 28 29 41 34 57
13 43z"/>
<path d="M13103 6964 c-27 -30 -28 -34 -9 -34 8 0 19 14 25 30 12 36 12 36
-16 4z"/>
<path d="M12959 6893 c-8 -10 -21 -27 -29 -37 -15 -19 -14 -19 13 -1 29 18 54
55 39 55 -5 0 -15 -8 -23 -17z"/>
<path d="M12999 6806 c-56 -86 -64 -106 -57 -126 7 -20 11 -22 18 -10 5 8 10
23 10 32 0 10 8 22 19 27 10 6 22 26 25 45 4 20 17 48 29 63 49 60 48 60 34
66 -8 3 -37 -32 -78 -97z"/>
<path d="M13392 6695 c-12 -14 -19 -25 -17 -25 3 0 1 -10 -6 -21 -8 -17 -8
-20 2 -17 14 5 54 76 47 83 -3 3 -14 -6 -26 -20z"/>
<path d="M12825 6561 c-33 -54 -63 -97 -67 -94 -4 2 -5 -3 -2 -12 4 -9 2 -15
-5 -13 -6 2 -21 -12 -32 -29 -12 -18 -18 -33 -15 -33 12 0 44 38 38 45 -4 3 1
3 11 0 12 -5 19 0 26 18 6 14 21 38 35 54 14 15 36 41 50 57 18 20 26 40 26
67 0 22 -1 39 -2 39 -2 0 -30 -45 -63 -99z"/>
<path d="M13142 6628 c-7 -7 -12 -17 -12 -24 0 -7 -6 -15 -12 -17 -9 -4 -8 -6
3 -6 8 -1 24 6 35 14 10 8 14 15 7 15 -7 0 -10 7 -7 15 7 18 2 19 -14 3z"/>
<path d="M12626 6600 l-17 -35 22 21 c12 12 19 28 17 35 -3 8 -12 -1 -22 -21z"/>
<path d="M12652 6324 c-36 -43 -47 -74 -26 -74 13 0 68 99 60 107 -2 2 -17
-13 -34 -33z"/>
<path d="M4150 6324 c0 -9 31 -37 36 -32 9 9 -8 38 -22 38 -8 0 -14 -3 -14 -6z"/>
<path d="M4210 6294 c0 -10 59 -104 76 -121 8 -8 14 -21 14 -30 0 -16 49 -60
62 -56 4 2 5 -5 2 -15 -5 -16 -5 -16 6 1 9 14 6 24 -16 55 -15 20 -38 46 -51
58 -14 11 -34 40 -46 64 -19 38 -47 64 -47 44z"/>
<path d="M4320 6082 c0 -7 -5 -10 -11 -6 -8 5 -8 1 0 -14 16 -30 30 -36 37
-17 4 9 0 24 -10 33 -11 11 -16 12 -16 4z"/>
<path d="M4420 6030 c0 -6 7 -27 15 -47 19 -44 19 -54 0 -29 -8 11 -15 15 -15
9 0 -15 61 -96 67 -89 4 3 -2 15 -12 26 -20 22 -16 34 8 24 17 -6 47 -62 47
-87 0 -19 16 -31 29 -22 15 8 -9 67 -35 88 -13 10 -37 42 -54 72 -31 55 -50
75 -50 55z"/>
<path d="M12554 5902 c-29 -25 -51 -62 -37 -62 7 0 51 49 64 73 13 23 10 21
-27 -11z"/>
<path d="M12367 5719 c-9 -6 -15 -14 -12 -20 10 -15 22 -10 28 11 3 11 4 20 4
20 -1 0 -10 -5 -20 -11z"/>
<path d="M4590 5713 c0 -18 36 -57 43 -46 4 6 -5 21 -18 33 -14 13 -25 19 -25
13z"/>
<path d="M4685 5669 c6 -20 60 -79 72 -79 6 0 -60 91 -70 97 -5 3 -6 -5 -2
-18z"/>
<path d="M4815 5580 c3 -5 11 -10 16 -10 6 0 7 5 4 10 -3 6 -11 10 -16 10 -6
0 -7 -4 -4 -10z"/>
<path d="M13020 5561 c-16 -30 -12 -36 10 -16 21 19 26 35 10 35 -5 0 -14 -9
-20 -19z"/>
<path d="M4840 5480 c6 -11 20 -25 31 -31 17 -9 20 -8 14 3 -24 41 -67 68 -45
28z"/>
<path d="M12863 5406 c-18 -24 -33 -46 -33 -50 0 -10 79 77 80 87 0 17 -17 4
-47 -37z"/>
<path d="M4890 5425 c0 -10 82 -95 92 -95 6 0 -7 19 -28 43 -37 41 -64 64 -64
52z"/>
<path d="M5050 5262 c0 -14 58 -64 69 -61 6 2 7 9 3 14 -12 17 -72 56 -72 47z"/>
<path d="M11653 5165 l-48 -46 53 36 c28 20 52 41 52 46 0 15 -6 11 -57 -36z"/>
<path d="M12219 4980 c-24 -16 -50 -30 -56 -30 -7 0 -13 -4 -13 -10 0 -5 6
-10 13 -10 8 0 7 -3 -3 -10 -8 -5 -12 -11 -9 -14 3 -3 32 19 65 49 66 62 67
69 3 25z"/>
<path d="M12221 4934 c-30 -20 -63 -37 -74 -38 -25 -1 -34 -23 -10 -23 24 0
53 17 103 60 55 47 50 47 -19 1z"/>
<path d="M5389 4937 c14 -15 31 -27 39 -27 8 0 37 -24 63 -52 27 -29 49 -47
49 -39 0 16 -89 101 -106 101 -6 0 -24 10 -40 22 l-29 22 24 -27z"/>
<path d="M11200 4890 c-9 -6 -10 -10 -3 -10 6 0 15 5 18 10 8 12 4 12 -15 0z"/>
<path d="M5570 4820 c5 -10 19 -21 29 -25 11 -3 22 -12 25 -20 6 -17 36 -21
36 -5 0 5 -10 15 -22 21 -13 7 -27 18 -33 24 -5 7 -18 15 -28 18 -15 6 -16 3
-7 -13z"/>
<path d="M5716 4728 c16 -12 42 -33 58 -47 24 -22 28 -23 25 -7 -2 10 -13 24
-24 30 -11 6 -31 19 -44 29 -13 9 -28 17 -34 17 -5 0 3 -10 19 -22z"/>
<path d="M10649 4663 c-11 -13 -9 -14 17 -11 31 3 40 20 12 24 -9 1 -23 -5
-29 -13z"/>
<path d="M5826 4661 c12 -13 86 -52 91 -47 2 1 -21 15 -49 31 -29 15 -48 23
-42 16z"/>
<path d="M5851 4596 c21 -23 69 -31 69 -12 0 8 -8 15 -17 15 -10 -1 -29 3 -43
6 -23 7 -24 6 -9 -9z"/>
<path d="M11884 4571 c-42 -26 -55 -47 -17 -27 25 13 63 46 52 46 -2 0 -18 -9
-35 -19z"/>
<path d="M5955 4535 c11 -8 25 -19 32 -25 18 -15 43 -12 37 4 -6 15 -47 36
-72 36 -15 -1 -14 -3 3 -15z"/>
<path d="M11270 4425 c-25 -13 -41 -24 -37 -25 15 0 75 28 81 39 9 14 9 14
-44 -14z"/>
<path d="M6204 4421 c21 -23 26 -26 26 -11 0 5 -10 15 -22 21 -23 12 -23 12
-4 -10z"/>
<path d="M8760 4399 c0 -5 19 -9 42 -9 23 0 39 2 36 5 -10 10 -78 13 -78 4z"/>
<path d="M6191 4377 c21 -14 46 -28 57 -31 11 -4 36 -18 56 -31 20 -13 38 -20
41 -15 4 6 3 10 -2 11 -4 0 1 4 12 9 20 8 20 9 -1 9 -11 1 -29 8 -40 17 -18
14 -18 15 6 8 17 -4 22 -3 15 4 -5 6 -25 14 -44 17 -30 5 -33 4 -21 -10 18
-22 -5 -20 -38 4 -15 10 -38 22 -52 26 -20 6 -17 2 11 -18z"/>
<path d="M9359 4369 c-21 -16 -22 -18 -4 -14 11 2 27 4 36 4 8 1 24 7 35 15
18 14 17 15 -12 14 -17 -1 -42 -9 -55 -19z"/>
<path d="M10948 4307 c-38 -15 -36 -29 2 -16 17 6 30 15 30 20 0 5 -1 9 -2 8
-2 -1 -15 -6 -30 -12z"/>
<path d="M6690 4161 c0 -13 95 -58 148 -70 23 -5 42 -7 42 -4 0 5 -134 67
-167 77 -13 4 -23 3 -23 -3z"/>
<path d="M10500 4135 c-7 -9 -20 -13 -29 -10 -12 5 -13 3 -4 -5 8 -9 20 -9 46
1 20 7 34 16 31 21 -8 13 -30 9 -44 -7z"/>
<path d="M10568 4143 c7 -3 16 -2 19 1 4 3 -2 6 -13 5 -11 0 -14 -3 -6 -6z"/>
<path d="M10028 4103 c-30 -5 -37 -20 -14 -29 17 -6 56 12 56 26 0 6 -3 9 -7
9 -5 -1 -20 -4 -35 -6z"/>
<path d="M6955 4046 c91 -43 125 -56 145 -56 24 0 27 -18 5 -27 -25 -9 11 -29
65 -36 34 -4 41 -3 27 5 -11 5 -26 11 -35 12 -9 2 -18 9 -20 16 -3 9 3 11 24
7 40 -8 -62 38 -161 74 -96 35 -119 37 -50 5z"/>
<path d="M10108 4034 c-16 -8 -28 -16 -28 -18 0 -9 51 8 61 20 15 18 1 17 -33
-2z"/>
<path d="M8825 4030 c3 -5 10 -10 16 -10 5 0 9 5 9 10 0 6 -7 10 -16 10 -8 0
-12 -4 -9 -10z"/>
<path d="M8868 4033 c6 -2 18 -2 25 0 6 3 1 5 -13 5 -14 0 -19 -2 -12 -5z"/>
<path d="M8776 4005 c-16 -12 -17 -15 -4 -15 24 0 48 11 48 21 0 13 -23 10
-44 -6z"/>
<path d="M8874 3985 c-18 -13 -17 -14 16 -15 23 0 31 3 21 9 -11 7 -11 9 0 14
11 4 10 6 -2 6 -8 1 -24 -6 -35 -14z"/>
<path d="M9462 3968 c-19 -19 -14 -30 8 -18 11 6 20 15 20 20 0 14 -14 12 -28
-2z"/>
<path d="M9370 3950 c-24 -8 -24 -8 5 -8 17 0 39 3 50 8 18 8 18 9 -5 8 -14 0
-36 -4 -50 -8z"/>
<path d="M7250 3930 c8 -5 31 -10 50 -10 26 0 31 3 20 10 -8 5 -31 10 -50 10
-26 0 -31 -3 -20 -10z"/>
<path d="M7757 3835 c52 -24 231 -51 244 -38 9 9 5 12 -17 11 -16 0 -54 4 -84
10 -58 12 -96 19 -145 26 l-30 5 32 -14z"/>
<path d="M7655 3815 c22 -8 49 -14 60 -14 11 0 0 7 -25 15 -25 7 -52 13 -60
13 -8 -1 3 -7 25 -14z"/>
<path d="M9318 3743 c7 -3 16 -2 19 1 4 3 -2 6 -13 5 -11 0 -14 -3 -6 -6z"/>
<path d="M8396 3718 c2 -3 35 -9 72 -13 37 -3 93 -8 126 -12 71 -7 70 12 -2
23 -61 9 -201 11 -196 2z"/>
<path d="M8237 3698 c-7 -4 10 -8 38 -8 90 -2 188 -16 219 -32 12 -7 16 -7 12
0 -3 6 -21 15 -39 21 -44 15 -215 29 -230 19z"/>
</g>
</svg>
